<mxfile host="app.diagrams.net" modified="2021-01-11T13:01:45.722Z" agent="5.0 (Macintosh; Intel Mac OS X 10_15_6) AppleWebKit/605.1.15 (KHTML, like Gecko) Version/13.1.2 Safari/605.1.15" etag="Jk--tp_7SGdAA_RPuKaR" version="14.0.4" type="github" pages="2">
  <diagram name="Page-1" id="16e2658f-23c8-b752-8be9-c03fbebb8bbe">
    <mxGraphModel dx="863" dy="700" grid="1" gridSize="10" guides="1" tooltips="1" connect="1" arrows="1" fold="1" page="1" pageScale="1" pageWidth="1100" pageHeight="850" background="#ffffff" math="0" shadow="0">
      <root>
        <mxCell id="0" />
        <mxCell id="1" parent="0" />
        <mxCell id="6d250d948d6a1778-7" style="edgeStyle=orthogonalEdgeStyle;rounded=0;html=1;exitX=1;exitY=0.5;exitPerimeter=0;entryX=1;entryY=0.5;entryPerimeter=0;labelBackgroundColor=none;startArrow=none;startFill=0;startSize=5;endArrow=none;endFill=0;endSize=5;jettySize=auto;orthogonalLoop=1;strokeWidth=1;fontFamily=Verdana;fontSize=12" parent="1" source="6d250d948d6a1778-1" target="6d250d948d6a1778-2" edge="1">
          <mxGeometry relative="1" as="geometry">
            <Array as="points">
              <mxPoint x="230" y="120" />
              <mxPoint x="400" y="120" />
            </Array>
          </mxGeometry>
        </mxCell>
        <mxCell id="6d250d948d6a1778-8" style="edgeStyle=orthogonalEdgeStyle;rounded=0;html=1;exitX=1;exitY=0.5;exitPerimeter=0;entryX=1;entryY=0.5;entryPerimeter=0;labelBackgroundColor=none;startArrow=none;startFill=0;startSize=5;endArrow=none;endFill=0;endSize=5;jettySize=auto;orthogonalLoop=1;strokeWidth=1;fontFamily=Verdana;fontSize=12" parent="1" source="6d250d948d6a1778-1" target="6d250d948d6a1778-3" edge="1">
          <mxGeometry relative="1" as="geometry">
            <Array as="points">
              <mxPoint x="230" y="90" />
              <mxPoint x="640" y="90" />
            </Array>
          </mxGeometry>
        </mxCell>
        <mxCell id="6d250d948d6a1778-1" value="" style="verticalLabelPosition=bottom;shadow=0;dashed=0;align=center;fillColor=#000000;html=1;verticalAlign=top;strokeWidth=1;shape=mxgraph.electrical.miscellaneous.monocell_battery;rounded=1;comic=0;labelBackgroundColor=none;fontFamily=Verdana;fontSize=12;rotation=-90;" parent="1" vertex="1">
          <mxGeometry x="180" y="290" width="100" height="60" as="geometry" />
        </mxCell>
        <mxCell id="6d250d948d6a1778-11" style="edgeStyle=orthogonalEdgeStyle;rounded=0;html=1;exitX=0;exitY=0.5;exitPerimeter=0;entryX=0;entryY=0.5;entryPerimeter=0;labelBackgroundColor=none;startArrow=none;startFill=0;startSize=5;endArrow=none;endFill=0;endSize=5;jettySize=auto;orthogonalLoop=1;strokeWidth=1;fontFamily=Verdana;fontSize=12" parent="1" source="6d250d948d6a1778-2" target="6d250d948d6a1778-6" edge="1">
          <mxGeometry relative="1" as="geometry" />
        </mxCell>
        <mxCell id="6d250d948d6a1778-12" style="edgeStyle=orthogonalEdgeStyle;rounded=0;html=1;exitX=0;exitY=0.5;exitPerimeter=0;entryX=1;entryY=0.5;entryPerimeter=0;labelBackgroundColor=none;startArrow=none;startFill=0;startSize=5;endArrow=none;endFill=0;endSize=5;jettySize=auto;orthogonalLoop=1;strokeWidth=1;fontFamily=Verdana;fontSize=12" parent="1" source="6d250d948d6a1778-2" target="6d250d948d6a1778-4" edge="1">
          <mxGeometry relative="1" as="geometry" />
        </mxCell>
        <mxCell id="6d250d948d6a1778-2" value="" style="verticalLabelPosition=bottom;shadow=0;dashed=0;align=center;html=1;verticalAlign=top;strokeWidth=1;shape=mxgraph.electrical.resistors.resistor_1;rounded=1;comic=0;labelBackgroundColor=none;fontFamily=Verdana;fontSize=12;rotation=-90;" parent="1" vertex="1">
          <mxGeometry x="350" y="200" width="100" height="20" as="geometry" />
        </mxCell>
        <mxCell id="6d250d948d6a1778-9" style="edgeStyle=orthogonalEdgeStyle;rounded=0;html=1;exitX=0;exitY=0.5;exitPerimeter=0;entryX=1;entryY=0.5;entryPerimeter=0;labelBackgroundColor=none;startArrow=none;startFill=0;startSize=5;endArrow=none;endFill=0;endSize=5;jettySize=auto;orthogonalLoop=1;strokeWidth=1;fontFamily=Verdana;fontSize=12" parent="1" source="6d250d948d6a1778-3" target="6d250d948d6a1778-5" edge="1">
          <mxGeometry relative="1" as="geometry" />
        </mxCell>
        <mxCell id="6d250d948d6a1778-3" value="" style="verticalLabelPosition=bottom;shadow=0;dashed=0;align=center;html=1;verticalAlign=top;strokeWidth=1;shape=mxgraph.electrical.resistors.resistor_1;rounded=1;comic=0;labelBackgroundColor=none;fontFamily=Verdana;fontSize=12;rotation=-90;" parent="1" vertex="1">
          <mxGeometry x="590" y="200" width="100" height="20" as="geometry" />
        </mxCell>
        <mxCell id="6d250d948d6a1778-13" style="edgeStyle=orthogonalEdgeStyle;rounded=0;html=1;exitX=0;exitY=0.5;exitPerimeter=0;entryX=0;entryY=0.5;entryPerimeter=0;labelBackgroundColor=none;startArrow=none;startFill=0;startSize=5;endArrow=none;endFill=0;endSize=5;jettySize=auto;orthogonalLoop=1;strokeWidth=1;fontFamily=Verdana;fontSize=12" parent="1" source="6d250d948d6a1778-4" target="6d250d948d6a1778-1" edge="1">
          <mxGeometry relative="1" as="geometry">
            <Array as="points">
              <mxPoint x="400" y="470" />
              <mxPoint x="230" y="470" />
            </Array>
          </mxGeometry>
        </mxCell>
        <mxCell id="6d250d948d6a1778-4" value="" style="verticalLabelPosition=bottom;shadow=0;dashed=0;align=center;html=1;verticalAlign=top;strokeWidth=1;shape=mxgraph.electrical.resistors.resistor_1;rounded=1;comic=0;labelBackgroundColor=none;fontFamily=Verdana;fontSize=12;rotation=-90;" parent="1" vertex="1">
          <mxGeometry x="350" y="370" width="100" height="20" as="geometry" />
        </mxCell>
        <mxCell id="6d250d948d6a1778-14" style="edgeStyle=orthogonalEdgeStyle;rounded=0;html=1;exitX=0;exitY=0.5;exitPerimeter=0;entryX=0;entryY=0.5;entryPerimeter=0;labelBackgroundColor=none;startArrow=none;startFill=0;startSize=5;endArrow=none;endFill=0;endSize=5;jettySize=auto;orthogonalLoop=1;strokeWidth=1;fontFamily=Verdana;fontSize=12" parent="1" source="6d250d948d6a1778-5" target="6d250d948d6a1778-1" edge="1">
          <mxGeometry relative="1" as="geometry">
            <Array as="points">
              <mxPoint x="640" y="470" />
              <mxPoint x="230" y="470" />
            </Array>
          </mxGeometry>
        </mxCell>
        <mxCell id="6d250d948d6a1778-5" value="" style="verticalLabelPosition=bottom;shadow=0;dashed=0;align=center;html=1;verticalAlign=top;strokeWidth=1;shape=mxgraph.electrical.resistors.resistor_1;rounded=1;comic=0;labelBackgroundColor=none;fontFamily=Verdana;fontSize=12;rotation=-90;" parent="1" vertex="1">
          <mxGeometry x="590" y="370" width="100" height="20" as="geometry" />
        </mxCell>
        <mxCell id="6d250d948d6a1778-10" style="edgeStyle=orthogonalEdgeStyle;rounded=0;html=1;exitX=1;exitY=0.5;exitPerimeter=0;labelBackgroundColor=none;startArrow=none;startFill=0;startSize=5;endArrow=none;endFill=0;endSize=5;jettySize=auto;orthogonalLoop=1;strokeWidth=1;fontFamily=Verdana;fontSize=12" parent="1" source="6d250d948d6a1778-6" edge="1">
          <mxGeometry relative="1" as="geometry">
            <mxPoint x="640" y="330" as="targetPoint" />
          </mxGeometry>
        </mxCell>
        <mxCell id="6d250d948d6a1778-6" value="" style="verticalLabelPosition=bottom;shadow=0;dashed=0;align=center;fillColor=#ffffff;html=1;verticalAlign=top;strokeWidth=1;shape=mxgraph.electrical.resistors.resistor_1;rounded=1;comic=0;labelBackgroundColor=none;fontFamily=Verdana;fontSize=12;fontColor=#000000;rotation=0;" parent="1" vertex="1">
          <mxGeometry x="470" y="290" width="100" height="20" as="geometry" />
        </mxCell>
        <mxCell id="6d250d948d6a1778-16" value="R1" style="text;html=1;resizable=0;points=[];autosize=1;align=left;verticalAlign=top;spacingTop=-4;fontSize=16;fontFamily=Verdana" parent="1" vertex="1">
          <mxGeometry x="362" y="200" width="40" height="20" as="geometry" />
        </mxCell>
        <mxCell id="6d250d948d6a1778-17" value="R2" style="text;html=1;resizable=0;points=[];autosize=1;align=left;verticalAlign=top;spacingTop=-4;fontSize=16;fontFamily=Verdana" parent="1" vertex="1">
          <mxGeometry x="362" y="370" width="40" height="20" as="geometry" />
        </mxCell>
        <mxCell id="6d250d948d6a1778-18" value="R5" style="text;html=1;resizable=0;points=[];autosize=1;align=left;verticalAlign=top;spacingTop=-4;fontSize=16;fontFamily=Verdana" parent="1" vertex="1">
          <mxGeometry x="500" y="260" width="40" height="20" as="geometry" />
        </mxCell>
        <mxCell id="6d250d948d6a1778-19" value="R3" style="text;html=1;resizable=0;points=[];autosize=1;align=left;verticalAlign=top;spacingTop=-4;fontSize=16;fontFamily=Verdana" parent="1" vertex="1">
          <mxGeometry x="650" y="200" width="40" height="20" as="geometry" />
        </mxCell>
        <mxCell id="6d250d948d6a1778-20" value="R4" style="text;html=1;resizable=0;points=[];autosize=1;align=left;verticalAlign=top;spacingTop=-4;fontSize=16;fontFamily=Verdana" parent="1" vertex="1">
          <mxGeometry x="650" y="370" width="40" height="20" as="geometry" />
        </mxCell>
        <mxCell id="6d250d948d6a1778-21" value="I" style="endArrow=classic;html=1;labelBackgroundColor=none;strokeWidth=1;fontFamily=Verdana;fontSize=16" parent="1" edge="1">
          <mxGeometry x="-0.1429" y="20" width="50" height="50" relative="1" as="geometry">
            <mxPoint x="230" y="100" as="sourcePoint" />
            <mxPoint x="300" y="100" as="targetPoint" />
            <mxPoint as="offset" />
          </mxGeometry>
        </mxCell>
        <mxCell id="6d250d948d6a1778-22" value="U" style="endArrow=classic;html=1;labelBackgroundColor=none;strokeWidth=1;fontFamily=Verdana;fontSize=16" parent="1" edge="1">
          <mxGeometry x="-0.1429" y="20" width="50" height="50" relative="1" as="geometry">
            <mxPoint x="190" y="360" as="sourcePoint" />
            <mxPoint x="190" y="280" as="targetPoint" />
            <mxPoint as="offset" />
          </mxGeometry>
        </mxCell>
        <mxCell id="6d250d948d6a1778-23" value="I5" style="endArrow=classic;html=1;labelBackgroundColor=none;strokeWidth=1;fontFamily=Verdana;fontSize=16" parent="1" edge="1">
          <mxGeometry x="-0.1429" y="20" width="50" height="50" relative="1" as="geometry">
            <mxPoint x="410" y="280" as="sourcePoint" />
            <mxPoint x="480" y="280" as="targetPoint" />
            <mxPoint as="offset" />
          </mxGeometry>
        </mxCell>
        <mxCell id="6d250d948d6a1778-24" value="Is1" style="verticalLabelPosition=middle;html=1;verticalAlign=middle;strokeWidth=1;shape=mxgraph.lean_mapping.physical_pull;rounded=1;shadow=0;comic=0;labelBackgroundColor=none;fillColor=#000000;fontFamily=Verdana;fontSize=16;align=center;flipH=1;labelPosition=center;" parent="1" vertex="1">
          <mxGeometry x="280" y="270" width="80" height="80" as="geometry" />
        </mxCell>
        <mxCell id="6d250d948d6a1778-25" value="Is2" style="verticalLabelPosition=middle;html=1;verticalAlign=middle;strokeWidth=1;shape=mxgraph.lean_mapping.physical_pull;rounded=1;shadow=0;comic=0;labelBackgroundColor=none;fillColor=#000000;fontFamily=Verdana;fontSize=16;align=center;flipH=1;labelPosition=center;" parent="1" vertex="1">
          <mxGeometry x="480" y="150" width="80" height="80" as="geometry" />
        </mxCell>
        <mxCell id="6d250d948d6a1778-26" value="Is3" style="verticalLabelPosition=middle;html=1;verticalAlign=middle;strokeWidth=1;shape=mxgraph.lean_mapping.physical_pull;rounded=1;shadow=0;comic=0;labelBackgroundColor=none;fillColor=#000000;fontFamily=Verdana;fontSize=16;align=center;flipH=1;labelPosition=center;" parent="1" vertex="1">
          <mxGeometry x="480" y="350" width="80" height="80" as="geometry" />
        </mxCell>
      </root>
    </mxGraphModel>
  </diagram>
  <diagram id="H4TsYhpCE9cmyt2hDXrw" name="Page-2">
    <mxGraphModel dx="863" dy="725" grid="1" gridSize="10" guides="1" tooltips="1" connect="1" arrows="1" fold="1" page="1" pageScale="1" pageWidth="827" pageHeight="1169" math="0" shadow="0">
      <root>
        <mxCell id="16hdhqfoHS1U88RXdf8C-0" />
        <mxCell id="16hdhqfoHS1U88RXdf8C-1" parent="16hdhqfoHS1U88RXdf8C-0" />
        <mxCell id="16hdhqfoHS1U88RXdf8C-2" value="" style="pointerEvents=1;verticalLabelPosition=bottom;shadow=0;dashed=0;align=center;html=1;verticalAlign=top;shape=mxgraph.electrical.electro-mechanical.simple_switch;" vertex="1" parent="16hdhqfoHS1U88RXdf8C-1">
          <mxGeometry x="160" y="64" width="75" height="19" as="geometry" />
        </mxCell>
        <mxCell id="16hdhqfoHS1U88RXdf8C-3" value="" style="pointerEvents=1;verticalLabelPosition=bottom;shadow=0;dashed=0;align=center;html=1;verticalAlign=top;shape=mxgraph.electrical.electro-mechanical.reed_switch;" vertex="1" parent="16hdhqfoHS1U88RXdf8C-1">
          <mxGeometry x="160" y="280" width="75" height="20" as="geometry" />
        </mxCell>
        <mxCell id="16hdhqfoHS1U88RXdf8C-4" value="" style="pointerEvents=1;verticalLabelPosition=bottom;shadow=0;dashed=0;align=center;html=1;verticalAlign=top;shape=mxgraph.electrical.electro-mechanical.simple_switch;" vertex="1" parent="16hdhqfoHS1U88RXdf8C-1">
          <mxGeometry x="160" y="104" width="75" height="19" as="geometry" />
        </mxCell>
        <mxCell id="16hdhqfoHS1U88RXdf8C-5" value="" style="pointerEvents=1;verticalLabelPosition=bottom;shadow=0;dashed=0;align=center;html=1;verticalAlign=top;shape=mxgraph.electrical.electro-mechanical.simple_switch;" vertex="1" parent="16hdhqfoHS1U88RXdf8C-1">
          <mxGeometry x="160" y="144" width="75" height="19" as="geometry" />
        </mxCell>
        <mxCell id="16hdhqfoHS1U88RXdf8C-6" value="" style="pointerEvents=1;verticalLabelPosition=bottom;shadow=0;dashed=0;align=center;html=1;verticalAlign=top;shape=mxgraph.electrical.electro-mechanical.simple_switch;" vertex="1" parent="16hdhqfoHS1U88RXdf8C-1">
          <mxGeometry x="160" y="220" width="75" height="19" as="geometry" />
        </mxCell>
        <mxCell id="16hdhqfoHS1U88RXdf8C-8" value="" style="endArrow=none;html=1;" edge="1" parent="16hdhqfoHS1U88RXdf8C-1">
          <mxGeometry width="50" height="50" relative="1" as="geometry">
            <mxPoint x="600" y="50" as="sourcePoint" />
            <mxPoint x="680" y="50" as="targetPoint" />
          </mxGeometry>
        </mxCell>
        <mxCell id="16hdhqfoHS1U88RXdf8C-9" value="1" style="edgeLabel;html=1;align=center;verticalAlign=middle;resizable=0;points=[];" vertex="1" connectable="0" parent="16hdhqfoHS1U88RXdf8C-8">
          <mxGeometry x="0.425" y="-2" relative="1" as="geometry">
            <mxPoint x="-7" y="-12" as="offset" />
          </mxGeometry>
        </mxCell>
        <mxCell id="16hdhqfoHS1U88RXdf8C-11" value="" style="endArrow=none;html=1;" edge="1" parent="16hdhqfoHS1U88RXdf8C-1">
          <mxGeometry width="50" height="50" relative="1" as="geometry">
            <mxPoint x="600" y="70" as="sourcePoint" />
            <mxPoint x="680" y="70" as="targetPoint" />
          </mxGeometry>
        </mxCell>
        <mxCell id="16hdhqfoHS1U88RXdf8C-12" value="2" style="edgeLabel;html=1;align=center;verticalAlign=middle;resizable=0;points=[];" vertex="1" connectable="0" parent="16hdhqfoHS1U88RXdf8C-11">
          <mxGeometry x="0.425" y="-2" relative="1" as="geometry">
            <mxPoint x="-7" y="-12" as="offset" />
          </mxGeometry>
        </mxCell>
        <mxCell id="16hdhqfoHS1U88RXdf8C-13" value="" style="endArrow=none;html=1;" edge="1" parent="16hdhqfoHS1U88RXdf8C-1">
          <mxGeometry width="50" height="50" relative="1" as="geometry">
            <mxPoint x="600" y="190" as="sourcePoint" />
            <mxPoint x="680" y="190" as="targetPoint" />
          </mxGeometry>
        </mxCell>
        <mxCell id="16hdhqfoHS1U88RXdf8C-14" value="11" style="edgeLabel;html=1;align=center;verticalAlign=middle;resizable=0;points=[];" vertex="1" connectable="0" parent="16hdhqfoHS1U88RXdf8C-13">
          <mxGeometry x="0.425" y="-2" relative="1" as="geometry">
            <mxPoint x="-7" y="-12" as="offset" />
          </mxGeometry>
        </mxCell>
        <mxCell id="16hdhqfoHS1U88RXdf8C-15" value="" style="endArrow=none;html=1;" edge="1" parent="16hdhqfoHS1U88RXdf8C-1">
          <mxGeometry width="50" height="50" relative="1" as="geometry">
            <mxPoint x="600" y="160" as="sourcePoint" />
            <mxPoint x="680" y="160" as="targetPoint" />
          </mxGeometry>
        </mxCell>
        <mxCell id="16hdhqfoHS1U88RXdf8C-16" value="9" style="edgeLabel;html=1;align=center;verticalAlign=middle;resizable=0;points=[];" vertex="1" connectable="0" parent="16hdhqfoHS1U88RXdf8C-15">
          <mxGeometry x="0.425" y="-2" relative="1" as="geometry">
            <mxPoint x="-7" y="-12" as="offset" />
          </mxGeometry>
        </mxCell>
        <mxCell id="16hdhqfoHS1U88RXdf8C-18" value="Machine On/Off Button" style="edgeLabel;html=1;align=right;verticalAlign=middle;resizable=0;points=[];" vertex="1" connectable="0" parent="16hdhqfoHS1U88RXdf8C-1">
          <mxGeometry x="750" y="169.5" as="geometry">
            <mxPoint x="50" y="20" as="offset" />
          </mxGeometry>
        </mxCell>
        <mxCell id="16hdhqfoHS1U88RXdf8C-19" value="Steam On/Off Button" style="edgeLabel;html=1;align=right;verticalAlign=middle;resizable=0;points=[];" vertex="1" connectable="0" parent="16hdhqfoHS1U88RXdf8C-1">
          <mxGeometry x="740" y="139" as="geometry">
            <mxPoint x="50" y="20" as="offset" />
          </mxGeometry>
        </mxCell>
        <mxCell id="16hdhqfoHS1U88RXdf8C-27" value="" style="endArrow=none;html=1;" edge="1" parent="16hdhqfoHS1U88RXdf8C-1">
          <mxGeometry width="50" height="50" relative="1" as="geometry">
            <mxPoint x="600" y="138" as="sourcePoint" />
            <mxPoint x="680" y="138" as="targetPoint" />
          </mxGeometry>
        </mxCell>
        <mxCell id="16hdhqfoHS1U88RXdf8C-28" value="7" style="edgeLabel;html=1;align=center;verticalAlign=middle;resizable=0;points=[];" vertex="1" connectable="0" parent="16hdhqfoHS1U88RXdf8C-27">
          <mxGeometry x="0.425" y="-2" relative="1" as="geometry">
            <mxPoint x="-7" y="-12" as="offset" />
          </mxGeometry>
        </mxCell>
        <mxCell id="16hdhqfoHS1U88RXdf8C-29" value="Double Shot Button" style="edgeLabel;html=1;align=right;verticalAlign=middle;resizable=0;points=[];" vertex="1" connectable="0" parent="16hdhqfoHS1U88RXdf8C-1">
          <mxGeometry x="740" y="117" as="geometry">
            <mxPoint x="50" y="20" as="offset" />
          </mxGeometry>
        </mxCell>
        <mxCell id="16hdhqfoHS1U88RXdf8C-35" value="" style="endArrow=none;html=1;" edge="1" parent="16hdhqfoHS1U88RXdf8C-1">
          <mxGeometry width="50" height="50" relative="1" as="geometry">
            <mxPoint x="600" y="101" as="sourcePoint" />
            <mxPoint x="680" y="101" as="targetPoint" />
          </mxGeometry>
        </mxCell>
        <mxCell id="16hdhqfoHS1U88RXdf8C-36" value="5" style="edgeLabel;html=1;align=center;verticalAlign=middle;resizable=0;points=[];" vertex="1" connectable="0" parent="16hdhqfoHS1U88RXdf8C-35">
          <mxGeometry x="0.425" y="-2" relative="1" as="geometry">
            <mxPoint x="-7" y="-12" as="offset" />
          </mxGeometry>
        </mxCell>
        <mxCell id="16hdhqfoHS1U88RXdf8C-37" value="Single Shot Button" style="edgeLabel;html=1;align=right;verticalAlign=middle;resizable=0;points=[];" vertex="1" connectable="0" parent="16hdhqfoHS1U88RXdf8C-1">
          <mxGeometry x="730" y="80" as="geometry">
            <mxPoint x="50" y="20" as="offset" />
          </mxGeometry>
        </mxCell>
        <mxCell id="16hdhqfoHS1U88RXdf8C-39" value="" style="pointerEvents=1;verticalLabelPosition=bottom;shadow=0;dashed=0;align=center;html=1;verticalAlign=top;shape=mxgraph.electrical.electro-mechanical.relay_coil;" vertex="1" parent="16hdhqfoHS1U88RXdf8C-1">
          <mxGeometry x="90" y="64" width="70" height="35" as="geometry" />
        </mxCell>
        <mxCell id="16hdhqfoHS1U88RXdf8C-40" value="" style="pointerEvents=1;verticalLabelPosition=bottom;shadow=0;dashed=0;align=center;html=1;verticalAlign=top;shape=mxgraph.electrical.electro-mechanical.relay_coil;" vertex="1" parent="16hdhqfoHS1U88RXdf8C-1">
          <mxGeometry x="90" y="104" width="70" height="35" as="geometry" />
        </mxCell>
        <mxCell id="16hdhqfoHS1U88RXdf8C-41" value="" style="pointerEvents=1;verticalLabelPosition=bottom;shadow=0;dashed=0;align=center;html=1;verticalAlign=top;shape=mxgraph.electrical.electro-mechanical.relay_coil;" vertex="1" parent="16hdhqfoHS1U88RXdf8C-1">
          <mxGeometry x="90" y="144" width="70" height="35" as="geometry" />
        </mxCell>
        <mxCell id="16hdhqfoHS1U88RXdf8C-43" value="" style="pointerEvents=1;verticalLabelPosition=bottom;shadow=0;dashed=0;align=center;html=1;verticalAlign=top;shape=mxgraph.electrical.electro-mechanical.relay_coil;" vertex="1" parent="16hdhqfoHS1U88RXdf8C-1">
          <mxGeometry x="90" y="220" width="70" height="35" as="geometry" />
        </mxCell>
      </root>
    </mxGraphModel>
  </diagram>
</mxfile>
